<svg width="128" height="54" viewBox="0 0 128 54" fill="none" xmlns="http://www.w3.org/2000/svg">
<g clip-path="url(#clip0_6_245)">
<path d="M9.31142 36.997C7.55133 36.159 6.10352 35.4799 6.10352 34.1107C6.10352 33.0633 6.92679 32.3047 8.55203 32.3047C9.14818 32.3047 9.63789 32.3733 10.1453 32.4708C10.4079 32.5142 10.6918 32.5539 10.926 32.5539C12.3454 32.5539 13.1439 31.6942 13.6797 30.0579L13.8997 29.3896C13.6761 29.2956 11.3554 28.2553 8.33202 28.2553C3.52017 28.2553 0.979402 31.398 0.979402 34.6563C0.979402 36.2999 1.48685 37.4919 2.27817 38.4311C3.29661 39.6376 4.75152 40.425 6.11062 41.1042C8.09071 42.094 9.87919 42.8237 9.87919 44.2938C9.87919 45.5907 8.55912 46.3348 6.79194 46.3348C4.37182 46.3348 2.25688 44.9259 1.98719 44.7526L0 48.5455C0.351307 48.7514 2.91337 50.4058 7.12551 50.4058C11.6144 50.4058 15.014 47.7832 15.014 43.752C15.014 39.7207 11.8628 38.254 9.31142 36.997Z" fill="white"/>
<path d="M26.8705 38.8682L35.0144 28.7032H29.2125L22.7151 37.4738H22.6193V28.7032H17.8359V50.236H18.1197C20.1886 50.236 22.6512 49.2607 22.6512 45.7459V40.8043H22.7471L29.3651 49.9723H35.4509L26.8634 38.8717" fill="white"/>
<path d="M35.2855 5.63515C33.5999 5.96025 31.1017 7.51715 31.1124 10.2661C31.1195 12.7658 33.1244 14.2794 33.1315 17.552C33.1422 20.0192 31.8079 21.6736 30.3672 22.5948C30.9491 22.5406 31.5879 22.5082 32.2905 22.5082C33.7631 22.5009 34.6503 22.6526 34.7071 22.6563L42.2619 13.2174C40.1647 10.0241 37.7127 7.54243 35.2855 5.63515Z" fill="white"/>
<path d="M41.6339 31.1234C42.5849 29.6171 42.7056 27.2149 42.7836 24.7658C42.8723 22.4865 43.3408 20.7671 46.3428 20.7598C47.0029 20.7598 47.6381 20.8501 48.7878 20.8465C53.1809 20.8248 56.0482 19.2859 57.8295 18.2746C54.1852 15.9084 48.8659 13.4955 42.2655 13.2209C41.8362 14.46 38.4899 23.9314 38.2344 24.69C38.2734 24.7369 38.8625 25.4016 39.5899 26.7056C40.6687 28.4973 41.2507 30.0145 41.6339 31.1234Z" fill="white"/>
<path d="M25.6805 23.386C25.2972 23.3895 25.1056 23.1294 25.0559 22.6815C25.0098 22.2372 23.1184 4.6418 22.8381 1.97954C22.7955 1.59302 22.7032 0.877793 22.7032 0.624933C22.6997 0.213133 22.9623 8.38254e-06 23.271 8.38254e-06C24.1653 -0.0036039 29.041 1.15956 34.2219 4.85492C32.7279 5.28116 30.031 6.85973 30.0417 10.1289C30.0523 13.0223 32.0892 14.6189 32.0963 17.5196C32.114 22.2408 26.7805 23.3823 25.6769 23.386" fill="white"/>
<path d="M42.3281 31.8423C42.4097 32.0591 42.4842 32.2396 42.5587 32.3661C42.6794 32.5683 42.8284 32.6586 43.0165 32.6586C43.1336 32.6586 43.2791 32.6189 43.4388 32.5394C43.8327 32.3588 59.3434 25.0042 61.689 23.9097C62.0261 23.7471 62.672 23.4473 62.8813 23.3246C63.1049 23.1981 63.2043 23.0102 63.2043 22.8224C63.2043 22.7177 63.1723 22.6093 63.1155 22.5117C62.821 22.0314 61.3235 20.4095 58.8111 18.6394C56.8168 19.7556 53.7048 21.4823 49.081 21.5003C47.9454 21.5003 47.69 21.4245 46.9128 21.4281C44.6524 21.4389 44.0882 22.4214 44.0065 24.4408C43.9924 24.8201 43.9853 25.333 43.964 25.8892C43.893 27.6918 43.6872 30.1806 42.3316 31.8423" fill="white"/>
<path d="M49.9854 40.8297C50.3403 40.4106 50.7696 40.0602 51.27 39.7749C51.7703 39.4894 52.3594 39.3485 53.0301 39.3485C53.8214 39.3485 54.4779 39.522 55.0066 39.8724C55.5353 40.2228 55.9363 40.631 56.2131 41.097C56.4864 41.5629 56.6886 42.0903 56.8199 42.6719C56.9512 43.2571 57.0151 43.9073 57.0151 44.6261C57.0151 45.3992 56.9228 46.1216 56.7418 46.7827C56.5609 47.4473 56.2912 48.0216 55.9328 48.5093C55.5744 49.0006 55.1344 49.3835 54.6056 49.658C54.0769 49.9362 53.4665 50.0734 52.771 50.0734C52.2032 50.0734 51.6958 49.9904 51.2522 49.8278C50.8087 49.6652 50.4006 49.4088 50.0244 49.0584C50.0386 49.4413 50.0457 49.7881 50.0493 50.0951C50.0493 50.4021 50.0528 50.7128 50.0528 51.0271V53.7833H47.4375V39.5761H49.9818V40.8224L49.9854 40.8297ZM50.0564 47.2089C50.6667 47.8158 51.3835 48.1228 52.2068 48.1228C52.8775 48.1228 53.4027 47.8338 53.7824 47.2558C54.1585 46.6779 54.3466 45.8037 54.3466 44.6297C54.3466 43.4558 54.1727 42.6755 53.8214 42.1264C53.4701 41.5738 52.9697 41.2992 52.3168 41.2992C51.8981 41.2992 51.5006 41.4292 51.1245 41.6821C50.7448 41.9386 50.3899 42.307 50.0528 42.7875V47.2089H50.0564Z" fill="white"/>
<path d="M61.5528 37.864H58.9375V35.599H61.5528V37.864ZM61.5528 49.8387H58.9375V39.5834H61.5528V49.8387Z" fill="white"/>
<path d="M68.5305 50.077C67.7427 50.077 67.0365 49.9578 66.4155 49.7194C65.7945 49.481 65.2658 49.1343 64.8329 48.6719C64.4035 48.2131 64.0699 47.6496 63.8357 46.985C63.6015 46.3202 63.4844 45.5653 63.4844 44.7128C63.4844 43.8603 63.6015 43.1018 63.8357 42.4335C64.0699 41.7688 64.4035 41.2053 64.8329 40.7465C65.2658 40.2878 65.791 39.941 66.4155 39.7026C67.0365 39.4642 67.7427 39.345 68.5305 39.345C69.1266 39.345 69.6766 39.4208 70.1805 39.5762C70.6844 39.7278 71.1245 39.959 71.5006 40.2625C71.8803 40.5659 72.1855 40.938 72.4161 41.3823C72.6503 41.8266 72.7958 42.336 72.8597 42.9175H70.4289C70.3615 42.4227 70.1593 42.0253 69.8221 41.7327C69.485 41.44 69.0521 41.292 68.5269 41.292C68.1685 41.292 67.8456 41.3606 67.5546 41.4979C67.2636 41.6352 67.0117 41.841 66.8023 42.1192C66.5929 42.3973 66.4297 42.7514 66.3162 43.1848C66.2026 43.6147 66.1458 44.124 66.1458 44.7092C66.1458 45.2944 66.2026 45.7929 66.3162 46.2192C66.4297 46.6454 66.5894 46.9994 66.8023 47.2775C67.0117 47.5593 67.2601 47.7652 67.5546 47.9061C67.8456 48.047 68.1721 48.1156 68.5269 48.1156C68.7789 48.1156 69.0166 48.0758 69.2437 48.0036C69.4673 47.9314 69.6624 47.8229 69.8292 47.6785C69.996 47.5376 70.1344 47.3643 70.2338 47.1656C70.3367 46.9668 70.4006 46.7429 70.4289 46.49H72.8597C72.7816 47.0572 72.629 47.5593 72.3948 48.0036C72.1606 48.4479 71.8555 48.8236 71.4829 49.1306C71.1103 49.4377 70.6702 49.6725 70.1699 49.8314C69.6695 49.9939 69.1195 50.0699 68.5234 50.0699L68.5305 50.077Z" fill="white"/>
<path d="M83.4397 49.1487C83.4397 50.8031 83.0423 52.024 82.2439 52.8152C81.449 53.6063 80.2425 54 78.6314 54C77.8969 54 77.2581 53.9205 76.7081 53.7688C76.1581 53.6135 75.7039 53.3968 75.3455 53.1078C74.9871 52.8224 74.7138 52.4828 74.5328 52.0928C74.3519 51.7026 74.2596 51.2655 74.2596 50.7851H76.7684C76.811 51.2871 76.9778 51.6629 77.2688 51.9121C77.5598 52.1614 78.0353 52.2841 78.6953 52.2841C79.1495 52.2841 79.515 52.212 79.8025 52.0638C80.0863 51.9157 80.3064 51.7098 80.466 51.4461C80.6257 51.1824 80.7322 50.8573 80.7925 50.4781C80.8493 50.0951 80.8777 49.6689 80.8777 49.2029V48.531C80.0331 49.5099 79.0573 49.9976 77.943 49.9976C77.2901 49.9976 76.7152 49.882 76.2149 49.6472C75.7145 49.4124 75.2887 49.0729 74.9445 48.6285C74.5967 48.1842 74.3341 47.6423 74.1567 46.9922C73.9793 46.3456 73.8906 45.6122 73.8906 44.7887C73.8906 44.0229 73.9828 43.304 74.1709 42.643C74.3554 41.9783 74.6251 41.4076 74.98 40.92C75.3313 40.4359 75.7713 40.053 76.3 39.7712C76.8288 39.4931 77.4391 39.3522 78.1311 39.3522C78.6882 39.3522 79.1921 39.4317 79.6463 39.5942C80.097 39.7532 80.5228 40.0096 80.9132 40.3564V39.5834H83.4468V49.1487H83.4397ZM80.8351 42.242C80.2176 41.6135 79.5044 41.2992 78.6953 41.2992C78.0353 41.2992 77.5136 41.5809 77.1304 42.1445C76.7436 42.708 76.5555 43.5893 76.5555 44.7887C76.5555 45.8506 76.7259 46.6598 77.063 47.2089C77.4036 47.7615 77.9075 48.0361 78.5711 48.0361C78.9898 48.0361 79.3873 47.9097 79.7599 47.6532C80.1325 47.4004 80.4944 47.0319 80.8351 46.5478V42.242Z" fill="white"/>
<path d="M88.5606 49.8387H85.9453V35.6641H88.5606V49.8387Z" fill="white"/>
<path d="M95.5382 39.3485C96.2976 39.3485 96.9896 39.4642 97.607 39.6954C98.2245 39.9265 98.7497 40.2697 99.1862 40.7212C99.6226 41.1764 99.9597 41.7363 100.194 42.4045C100.432 43.0728 100.549 43.8423 100.549 44.7164C100.549 45.5907 100.432 46.3492 100.194 47.0174C99.9562 47.6821 99.6191 48.242 99.1862 48.6972C98.7497 49.1523 98.2245 49.4954 97.607 49.7303C96.9896 49.9651 96.2976 50.0807 95.5382 50.0807C94.7789 50.0807 94.0762 49.9651 93.4517 49.7303C92.8307 49.4954 92.302 49.1523 91.8655 48.6972C91.4326 48.242 91.0919 47.6821 90.8541 47.0174C90.6128 46.3492 90.4922 45.5834 90.4922 44.7164C90.4922 43.8495 90.6128 43.0728 90.8541 42.4045C91.0954 41.7399 91.4326 41.1764 91.8655 40.7212C92.302 40.2697 92.8307 39.9265 93.4517 39.6954C94.0727 39.4642 94.7682 39.3485 95.5382 39.3485ZM95.5382 48.1193C95.886 48.1193 96.2089 48.047 96.4999 47.9097C96.7909 47.7688 97.0393 47.5593 97.2451 47.2812C97.4509 47.003 97.607 46.649 97.7206 46.2228C97.8271 45.7965 97.8838 45.2944 97.8838 44.7129C97.8838 44.1312 97.8271 43.6291 97.7206 43.1993C97.6106 42.7694 97.4509 42.4154 97.2451 42.1337C97.0393 41.8555 96.7909 41.646 96.4999 41.5051C96.2089 41.3642 95.886 41.2956 95.5382 41.2956C95.1905 41.2956 94.8463 41.3679 94.5553 41.5051C94.2643 41.646 94.0159 41.8555 93.8101 42.1337C93.6043 42.4154 93.4446 42.7694 93.331 43.1993C93.2175 43.6291 93.1607 44.1349 93.1607 44.7129C93.1607 45.2908 93.2175 45.7965 93.331 46.2228C93.4446 46.649 93.6043 47.003 93.8101 47.2812C94.0159 47.5629 94.2643 47.7688 94.5553 47.9097C94.8463 48.0505 95.1763 48.1193 95.5382 48.1193Z" fill="white"/>
<path d="M105.093 38.7634C105.093 39.0921 105.086 39.4317 105.078 39.7857C105.068 40.1397 105.064 40.4793 105.064 40.808C105.458 40.3456 105.902 39.988 106.409 39.7352C106.913 39.4786 107.452 39.3522 108.031 39.3522C108.684 39.3522 109.259 39.4751 109.766 39.7207C110.27 39.9664 110.692 40.3131 111.026 40.7682C111.359 41.2234 111.618 41.7761 111.792 42.4227C111.966 43.0729 112.055 43.8098 112.055 44.6334C112.055 45.457 111.959 46.1939 111.768 46.8658C111.576 47.5376 111.296 48.1084 110.934 48.5816C110.572 49.0584 110.125 49.4268 109.596 49.6869C109.067 49.9507 108.474 50.0807 107.814 50.0807C107.243 50.0807 106.736 49.9941 106.281 49.8243C105.827 49.6545 105.408 49.3944 105.025 49.044V49.8423H102.484V35.6677H105.1V38.7707L105.093 38.7634ZM105.093 47.2054C105.703 47.8122 106.42 48.1193 107.243 48.1193C107.914 48.1193 108.439 47.8303 108.819 47.2523C109.195 46.6743 109.383 45.8002 109.383 44.6262C109.383 43.4521 109.209 42.6719 108.858 42.1229C108.51 41.5701 108.01 41.2956 107.357 41.2956C106.938 41.2956 106.54 41.4257 106.161 41.6786C105.785 41.935 105.426 42.3035 105.089 42.7839V47.2054H105.093Z" fill="white"/>
<path d="M120.333 48.8959C119.889 49.2968 119.382 49.5931 118.821 49.7881C118.257 49.9831 117.622 50.0807 116.908 50.0807C116.415 50.0807 115.954 50.0156 115.528 49.8892C115.102 49.7592 114.733 49.5714 114.421 49.3185C114.108 49.0657 113.86 48.755 113.679 48.3792C113.498 48.0036 113.406 47.5737 113.406 47.0861C113.406 44.7129 115.418 43.5244 119.438 43.5244H120.315C120.315 42.9861 120.297 42.5924 120.262 42.3395C120.226 42.1734 120.18 42.018 120.12 41.8808C120.056 41.7399 119.967 41.6171 119.85 41.516C119.726 41.3353 119.531 41.2053 119.265 41.1222C118.998 41.0427 118.675 40.9994 118.296 40.9994C117.618 40.9994 117.103 41.1258 116.756 41.3823C116.411 41.6352 116.213 42.0145 116.167 42.5165H113.821C113.959 40.407 115.482 39.3522 118.392 39.3522C119.098 39.3522 119.722 39.41 120.262 39.5183C120.801 39.6303 121.284 39.8326 121.717 40.118C122.121 40.3817 122.423 40.7574 122.621 41.2378C122.82 41.7182 122.92 42.3756 122.92 43.2065V49.8387H120.336V48.8959H120.333ZM120.315 45.1137H119.304C118.221 45.1137 117.409 45.2546 116.876 45.5364C116.34 45.8182 116.071 46.2805 116.071 46.9271C116.071 47.4076 116.234 47.7652 116.557 48C116.88 48.2348 117.309 48.3504 117.845 48.3504C118.09 48.3504 118.335 48.3215 118.576 48.26C118.817 48.2023 119.041 48.1228 119.254 48.0181C119.467 47.9169 119.665 47.7905 119.846 47.6423C120.027 47.4907 120.187 47.3245 120.315 47.1475V45.1137Z" fill="white"/>
<path d="M127.998 49.8387H125.383V35.6641H127.998V49.8387Z" fill="white"/>
</g>
<defs>
<clipPath id="clip0_6_245">
<rect width="128" height="54" fill="white"/>
</clipPath>
</defs>
</svg>
